<?xml version="1.0" encoding="utf-8"?>
<!-- Generator: Adobe Illustrator 22.0.1, SVG Export Plug-In . SVG Version: 6.00 Build 0)  -->
<svg version="1.1" id="Layer_1" xmlns="http://www.w3.org/2000/svg" xmlns:xlink="http://www.w3.org/1999/xlink" x="0px" y="0px"
	 viewBox="0 0 500 500" style="enable-background:new 0 0 500 500;" xml:space="preserve">
<g>
	<path d="M29.5,103h441c14.7,0,24.5-9.8,24.5-24.5c0-14.7-9.8-24.5-24.5-24.5h-441C14.8,54,5,63.8,5,78.5C5,93.2,14.8,103,29.5,103z
		"/>
	<path d="M470.5,397h-441C14.8,397,5,406.8,5,421.5c0,14.7,9.8,24.5,24.5,24.5h441c14.7,0,24.5-9.8,24.5-24.5
		C495,406.8,485.2,397,470.5,397z"/>
	<path d="M470.5,225.5h-441C14.8,225.5,5,235.3,5,250c0,14.7,9.8,24.5,24.5,24.5h441c14.7,0,24.5-9.8,24.5-24.5
		C495,235.3,485.2,225.5,470.5,225.5z"/>
</g>
</svg>
